<svg width="176" height="22" viewBox="0 0 176 22" fill="none" xmlns="http://www.w3.org/2000/svg">
<g clip-path="url('#clip0_412_2154')">
<path d="M54.9425 12.5764L51.1666 11.79C47.8094 11.1211 45.679 9.32764 45.679 6.29199C45.679 2.40371 48.4412 0.5 53.488 0.5C58.5348 0.5 61.2235 2.48456 61.2235 6.38019V6.79181H57.0729V6.49044C57.0729 4.73374 55.9122 3.91051 53.488 3.91051C51.0637 3.91051 49.859 4.69699 49.859 6.18909C49.859 7.27692 50.5348 7.9899 52.2171 8.32066L56.0371 9.13653C59.3576 9.81275 61.488 11.6062 61.488 14.561C61.488 18.5963 58.4614 20.5073 53.4586 20.5073C48.4559 20.5073 45.4219 18.5228 45.4219 14.6272V14.2155H49.5725V14.4728C49.5725 16.2736 50.9903 17.0895 53.4586 17.0895C55.9269 17.0895 57.3447 16.3104 57.3447 14.7374C57.3374 13.6643 56.6248 12.8778 54.9425 12.5764Z" fill="#010101"></path>
<path d="M82.4103 13.995C82.0356 18.2582 79.009 20.5073 74.2634 20.5073C69.29 20.5073 66.043 17.9274 66.043 13.0248V7.93844C66.043 3.00643 69.29 0.5 74.2634 0.5C79.2367 0.5 82.4103 3.00643 82.4103 7.93844V11.79H70.2303V13.26C70.2303 15.5018 71.6481 16.8837 74.2634 16.8837C76.8786 16.8837 78.0026 15.6488 78.223 13.9436L82.4103 13.995ZM70.2303 8.61466H78.2597V7.68118C78.2597 5.24825 76.6949 4.08692 74.2634 4.08692C71.8318 4.08692 70.2303 5.24825 70.2303 7.68118V8.61466Z" fill="#010101"></path>
<path d="M87.625 7.93844C87.625 3.00643 90.872 0.5 95.8454 0.5C100.819 0.5 104.007 3.00643 104.007 7.93844V20.1325H99.8564V7.68118C99.8564 5.24825 98.2917 4.08692 95.8601 4.08692C93.4285 4.08692 91.8197 5.24825 91.8197 7.68118V20.1325H87.625V7.93844Z" fill="#010101"></path>
<path d="M116.82 13.3631C116.82 16.5384 117.87 17.1411 122.205 16.6927V20.1326C114.286 21.4042 112.655 18.4862 112.655 13.1352V4.46192H107.799V0.875H122.183V4.46192H116.798L116.82 13.3631Z" fill="#010101"></path>
<path d="M154.41 13.995C154.036 18.2582 151.009 20.5073 146.263 20.5073C141.29 20.5073 138.043 17.9274 138.043 13.0248V7.93844C138.043 3.00643 141.29 0.5 146.263 0.5C151.237 0.5 154.41 3.00643 154.41 7.93844V11.79H142.223V13.26C142.223 15.5018 143.648 16.8837 146.263 16.8837C148.879 16.8837 149.995 15.6488 150.223 13.9436L154.41 13.995ZM142.223 8.61466H150.26V7.68118C150.26 5.24825 148.688 4.08692 146.263 4.08692C143.839 4.08692 142.223 5.24825 142.223 7.68118V8.61466Z" fill="#010101"></path>
<path d="M159.617 7.93844C159.617 3.00643 162.864 0.5 167.838 0.5C172.811 0.5 175.984 3.00643 175.984 7.93844V20.1325H171.834V7.68118C171.834 5.24825 170.262 4.08692 167.838 4.08692C165.413 4.08692 163.797 5.24825 163.797 7.68118V20.1325H159.617V7.93844Z" fill="#010101"></path>
<path d="M132.371 0.875H128.221V20.1326H132.371V0.875Z" fill="#010101"></path>
<path d="M0 13.4728L8.58035 4.8877L14.2296 10.54L19.8788 4.8877L25.528 10.54L31.1772 4.8877L34.1157 7.82044L25.528 16.4129L19.8788 10.7605L14.2296 16.4129L8.58035 10.7605L2.93113 16.4129L0 13.4728Z" fill="#010101"></path>
</g>
<defs>
<clipPath id="clip0_412_2154">
<rect width="176" height="21" fill="white" transform="translate(0 0.5)"></rect>
</clipPath>
</defs>
</svg>
