<svg width="17" height="16" viewBox="0 0 17 16" fill="none" xmlns="http://www.w3.org/2000/svg">
<path d="M16.2273 0C16.4591 0 16.6909 0.0800003 16.8455 0.32C17 0.48 17 0.72 17 0.96L15.4545 8.16C15.3773 8.56 15.0682 8.8 14.6818 8.8H3.8631V10.4H14.6818C15.1455 10.4 15.4545 10.72 15.4545 11.2C15.4545 11.68 15.1455 12 14.6818 12H3.09091C2.62727 12 2.31818 11.68 2.31818 11.2L2.31786 1.6H0.772727C0.309091 1.6 0 1.28 0 0.8C0 0.32 0.309091 0 0.772727 0H16.2273ZM15.3 1.6H3.86364V7.2H14.0636L15.3 1.6ZM4.63636 16C5.48989 16 6.18182 15.2837 6.18182 14.4C6.18182 13.5163 5.48989 12.8 4.63636 12.8C3.78283 12.8 3.09091 13.5163 3.09091 14.4C3.09091 15.2837 3.78283 16 4.63636 16ZM13.1364 16C13.9899 16 14.6818 15.2837 14.6818 14.4C14.6818 13.5163 13.9899 12.8 13.1364 12.8C12.2828 12.8 11.5909 13.5163 11.5909 14.4C11.5909 15.2837 12.2828 16 13.1364 16Z" fill="white"/>
</svg>
